<?xml version="1.0" standalone="no"?>
<svg viewBox="0 0 200 200" xmlns="http://www.w3.org/2000/svg">
  <path fill="#0F62FE" d="M30.7,-57.6C35.9,-44.5,33.3,-29.3,32.8,-18.5C32.2,-7.7,33.7,-1.3,34.3,6C34.8,13.2,34.5,21.4,29.6,24.1C24.8,26.8,15.5,24.1,6.1,32.1C-3.4,40.2,-13.1,59,-24.6,64.5C-36.1,69.9,-49.4,62.1,-59.4,51.2C-69.5,40.2,-76.2,26.1,-74.5,13C-72.8,0,-62.7,-12,-52.1,-19.1C-41.6,-26.3,-30.8,-28.6,-22,-40C-13.3,-51.4,-6.6,-71.9,3.1,-76.7C12.8,-81.5,25.6,-70.7,30.7,-57.6Z" transform="translate(100 100)" />
</svg>
