<?xml version="1.0" standalone="no"?>
<svg viewBox="0 0 200 200" xmlns="http://www.w3.org/2000/svg">
  <path fill="#0F62FE" d="M17.2,-27.6C21.7,-23.9,24.4,-18.1,34.7,-11.2C45,-4.3,63.1,3.7,62.2,8.9C61.4,14.1,41.7,16.6,32.7,29.8C23.6,43.1,25.2,67,21.3,64.5C17.4,62,8.1,32.9,-3.3,23.8C-14.7,14.7,-28.3,25.5,-42.1,26.9C-55.9,28.2,-69.9,20.1,-66.7,12.4C-63.4,4.7,-42.8,-2.7,-37.5,-18.3C-32.2,-33.8,-42.1,-57.4,-38.4,-61.4C-34.7,-65.5,-17.4,-49.9,-5.5,-41.4C6.4,-32.9,12.7,-31.3,17.2,-27.6Z" transform="translate(100 100)" />
</svg>
